<svg width="17" height="16" viewBox="0 0 17 16" fill="none" xmlns="http://www.w3.org/2000/svg">
<path fill-rule="evenodd" clip-rule="evenodd" d="M6 4C4.48122 4 3.25 5.23122 3.25 6.75C3.25 8.26878 4.48122 9.5 6 9.5C7.51878 9.5 8.75 8.26878 8.75 6.75C8.75 5.23122 7.51878 4 6 4ZM2.25 6.75C2.25 4.67893 3.92893 3 6 3C8.07107 3 9.75 4.67893 9.75 6.75C9.75 8.82107 8.07107 10.5 6 10.5C3.92893 10.5 2.25 8.82107 2.25 6.75Z" fill="#206FE5"/>
<path fill-rule="evenodd" clip-rule="evenodd" d="M11.0922 3L11.0937 3C12.0883 3 13.0421 3.39509 13.7454 4.09835C14.4487 4.80161 14.8437 5.75544 14.8437 6.75C14.8437 7.74456 14.4487 8.69839 13.7454 9.40165C13.0421 10.1049 12.0883 10.5 11.0937 10.5C10.8176 10.5 10.5937 10.2761 10.5937 10C10.5937 9.72386 10.8176 9.5 11.0937 9.5C11.8231 9.5 12.5226 9.21027 13.0383 8.69455C13.554 8.17882 13.8437 7.47935 13.8437 6.75C13.8437 6.02066 13.554 5.32118 13.0383 4.80546C12.5227 4.28991 11.8236 4.0002 11.0945 4C10.8408 4.00084 10.5883 4.0349 10.3434 4.10132C10.0769 4.1736 9.80221 4.01615 9.72993 3.74963C9.65765 3.48312 9.8151 3.20847 10.0816 3.13619C10.4111 3.04683 10.7509 3.00104 11.0922 3Z" fill="#206FE5"/>
<path fill-rule="evenodd" clip-rule="evenodd" d="M6.00001 10.4998C5.19764 10.4998 4.40704 10.6929 3.69502 11.0628C2.98299 11.4326 2.37044 11.9685 1.9091 12.625C1.75033 12.8509 1.43847 12.9053 1.21253 12.7466C0.986597 12.5878 0.93215 12.2759 1.09092 12.05C1.64452 11.2622 2.37958 10.6192 3.23402 10.1754C4.08845 9.73148 5.03716 9.49976 6.00001 9.49976C6.96286 9.49976 7.91157 9.73148 8.76601 10.1754C9.62044 10.6192 10.3555 11.2622 10.9091 12.05C11.0679 12.2759 11.0134 12.5878 10.7875 12.7466C10.5616 12.9053 10.2497 12.8509 10.0909 12.625C9.62959 11.9685 9.01704 11.4326 8.30501 11.0628C7.59298 10.6929 6.80239 10.4998 6.00001 10.4998Z" fill="#206FE5"/>
<path fill-rule="evenodd" clip-rule="evenodd" d="M13.3991 11.0622C12.6871 10.6923 11.8964 10.4995 11.0941 10.5C10.8179 10.5002 10.5939 10.2765 10.5938 10.0003C10.5936 9.72417 10.8173 9.50017 11.0934 9.5C12.0565 9.4994 13.0055 9.73086 13.8601 10.1748C14.7147 10.6187 15.4497 11.262 16.003 12.0502C16.1616 12.2763 16.107 12.5881 15.881 12.7467C15.655 12.9054 15.3432 12.8508 15.1845 12.6248C14.7235 11.968 14.1111 11.4321 13.3991 11.0622Z" fill="#206FE5"/>
</svg>
