<svg width="11" height="12" viewBox="0 0 11 12" fill="none" xmlns="http://www.w3.org/2000/svg">
<path fill-rule="evenodd" clip-rule="evenodd" d="M4.91002 0.694589C5.07124 0.54739 5.28167 0.465767 5.5 0.465767C5.71833 0.465767 5.92876 0.54739 6.08998 0.694589C6.0902 0.694785 6.09041 0.69498 6.09062 0.695176L10.4645 4.66997L10.4707 4.67568C10.5572 4.75733 10.6264 4.85546 10.6744 4.96429C10.7223 5.07311 10.748 5.19042 10.7499 5.30933L10.75 5.31641V10.375C10.75 10.6071 10.6578 10.8296 10.4937 10.9937C10.3296 11.1578 10.1071 11.25 9.875 11.25H7.25C7.01794 11.25 6.79538 11.1578 6.63128 10.9937C6.46719 10.8296 6.375 10.6071 6.375 10.375V7.75H4.625V10.375C4.625 10.6071 4.53281 10.8296 4.36872 10.9937C4.20462 11.1578 3.98206 11.25 3.75 11.25H1.125C0.892936 11.25 0.670377 11.1578 0.506282 10.9937C0.342187 10.8296 0.25 10.6071 0.25 10.375V5.31641L0.250057 5.30933C0.251981 5.19043 0.277677 5.07311 0.325633 4.96429C0.373589 4.85546 0.442835 4.75733 0.529293 4.67568L0.535453 4.66997L4.90937 0.695176C4.90959 0.69498 4.9098 0.694785 4.91002 0.694589ZM1.12915 5.31278L5.49892 1.34175L5.5 1.34077L5.50108 1.34175L9.87085 5.31278C9.87201 5.31407 9.87296 5.31554 9.87367 5.31714C9.8744 5.31879 9.87485 5.32056 9.875 5.32236V10.375H7.25V7.75C7.25 7.51794 7.15781 7.29538 6.99372 7.13128C6.82962 6.96719 6.60706 6.875 6.375 6.875H4.625C4.39294 6.875 4.17038 6.96719 4.00628 7.13128C3.84219 7.29538 3.75 7.51794 3.75 7.75V10.375H1.125V5.32236C1.12515 5.32056 1.1256 5.31879 1.12633 5.31714C1.12704 5.31554 1.12799 5.31407 1.12915 5.31278Z" fill="#206FE5"/>
</svg>
