<svg width="23" height="22" viewBox="0 0 23 22" fill="#206FE5" xmlns="http://www.w3.org/2000/svg">
<path fill-rule="evenodd" clip-rule="evenodd" d="M1.1875 18.5625C1.1875 18.1828 1.4953 17.875 1.875 17.875H21.125C21.5047 17.875 21.8125 18.1828 21.8125 18.5625C21.8125 18.9422 21.5047 19.25 21.125 19.25H1.875C1.4953 19.25 1.1875 18.9422 1.1875 18.5625Z" fill="#206FE5"/>
<path fill-rule="evenodd" clip-rule="evenodd" d="M2.96523 2.46523C3.22309 2.20737 3.57283 2.0625 3.9375 2.0625H12.1875C12.5522 2.0625 12.9019 2.20737 13.1598 2.46523C13.4176 2.72309 13.5625 3.07283 13.5625 3.4375V18.5625C13.5625 18.9422 13.2547 19.25 12.875 19.25C12.4953 19.25 12.1875 18.9422 12.1875 18.5625L12.1875 3.4375H3.9375L3.9375 18.5625C3.9375 18.9422 3.6297 19.25 3.25 19.25C2.8703 19.25 2.5625 18.9422 2.5625 18.5625V3.4375C2.5625 3.07283 2.70737 2.72309 2.96523 2.46523Z" fill="#206FE5"/>
<path fill-rule="evenodd" clip-rule="evenodd" d="M12.1875 8.25C12.1875 7.8703 12.4953 7.5625 12.875 7.5625H19.0625C19.4272 7.5625 19.7769 7.70737 20.0348 7.96523C20.2926 8.22309 20.4375 8.57283 20.4375 8.9375V18.5625C20.4375 18.9422 20.1297 19.25 19.75 19.25C19.3703 19.25 19.0625 18.9422 19.0625 18.5625L19.0625 8.9375L12.875 8.9375C12.4953 8.9375 12.1875 8.6297 12.1875 8.25Z" fill="#206FE5"/>
<path fill-rule="evenodd" clip-rule="evenodd" d="M5.3125 6.1875C5.3125 5.8078 5.6203 5.5 6 5.5H8.75C9.1297 5.5 9.4375 5.8078 9.4375 6.1875C9.4375 6.5672 9.1297 6.875 8.75 6.875H6C5.6203 6.875 5.3125 6.5672 5.3125 6.1875Z" fill="#206FE5"/>
<path fill-rule="evenodd" clip-rule="evenodd" d="M6.6875 11.6875C6.6875 11.3078 6.9953 11 7.375 11H10.125C10.5047 11 10.8125 11.3078 10.8125 11.6875C10.8125 12.0672 10.5047 12.375 10.125 12.375H7.375C6.9953 12.375 6.6875 12.0672 6.6875 11.6875Z" fill="#206FE5"/>
<path fill-rule="evenodd" clip-rule="evenodd" d="M5.3125 15.125C5.3125 14.7453 5.6203 14.4375 6 14.4375H8.75C9.1297 14.4375 9.4375 14.7453 9.4375 15.125C9.4375 15.5047 9.1297 15.8125 8.75 15.8125H6C5.6203 15.8125 5.3125 15.5047 5.3125 15.125Z" fill="#206FE5"/>
<path fill-rule="evenodd" clip-rule="evenodd" d="M14.9375 15.125C14.9375 14.7453 15.2453 14.4375 15.625 14.4375H17C17.3797 14.4375 17.6875 14.7453 17.6875 15.125C17.6875 15.5047 17.3797 15.8125 17 15.8125H15.625C15.2453 15.8125 14.9375 15.5047 14.9375 15.125Z" fill="#206FE5"/>
<path fill-rule="evenodd" clip-rule="evenodd" d="M14.9375 11.6875C14.9375 11.3078 15.2453 11 15.625 11H17C17.3797 11 17.6875 11.3078 17.6875 11.6875C17.6875 12.0672 17.3797 12.375 17 12.375H15.625C15.2453 12.375 14.9375 12.0672 14.9375 11.6875Z" fill="#206FE5"/>
</svg>
