<svg width="17" height="16" viewBox="0 0 17 16" fill="none" xmlns="http://www.w3.org/2000/svg">
<path fill-rule="evenodd" clip-rule="evenodd" d="M6 2C5.72386 2 5.5 2.22386 5.5 2.5V8.5H4C3.72386 8.5 3.5 8.72386 3.5 9C3.5 9.27614 3.72386 9.5 4 9.5H5.5V10.5H4C3.72386 10.5 3.5 10.7239 3.5 11C3.5 11.2761 3.72386 11.5 4 11.5H5.5V13.5C5.5 13.7761 5.72386 14 6 14C6.27614 14 6.5 13.7761 6.5 13.5V11.5H9.5C9.77614 11.5 10 11.2761 10 11C10 10.7239 9.77614 10.5 9.5 10.5H6.5V9.5H9.75C10.7446 9.5 11.6984 9.10491 12.4017 8.40165C13.1049 7.69839 13.5 6.74456 13.5 5.75C13.5 4.75544 13.1049 3.80161 12.4017 3.09835C11.6984 2.39509 10.7446 2 9.75 2H6ZM9.75 8.5H6.5V3H9.75C10.4793 3 11.1788 3.28973 11.6945 3.80546C12.2103 4.32118 12.5 5.02065 12.5 5.75C12.5 6.47935 12.2103 7.17882 11.6945 7.69454C11.1788 8.21027 10.4793 8.5 9.75 8.5Z" fill="#206FE5"/>
</svg>
