<svg width="20" height="20" viewBox="0 0 20 20" fill="#161617" xmlns="http://www.w3.org/2000/svg">
<path fill-rule="evenodd" clip-rule="evenodd" d="M4.375 10C4.375 9.65482 4.65482 9.375 5 9.375H15C15.3452 9.375 15.625 9.65482 15.625 10C15.625 10.3452 15.3452 10.625 15 10.625H5C4.65482 10.625 4.375 10.3452 4.375 10Z" fill="#161617"/>
<path fill-rule="evenodd" clip-rule="evenodd" d="M1.25 6.25C1.25 5.90482 1.52982 5.625 1.875 5.625H18.125C18.4702 5.625 18.75 5.90482 18.75 6.25C18.75 6.59518 18.4702 6.875 18.125 6.875H1.875C1.52982 6.875 1.25 6.59518 1.25 6.25Z" fill="#161617"/>
<path fill-rule="evenodd" clip-rule="evenodd" d="M7.5 13.75C7.5 13.4048 7.77982 13.125 8.125 13.125H11.875C12.2202 13.125 12.5 13.4048 12.5 13.75C12.5 14.0952 12.2202 14.375 11.875 14.375H8.125C7.77982 14.375 7.5 14.0952 7.5 13.75Z" fill="#161617"/>
</svg>
