<svg width="43" height="44" viewBox="0 0 43 44" fill="none" xmlns="http://www.w3.org/2000/svg">
<path d="M7.70917 8.40814C8.40346 7.86183 9.14479 7.30723 9.93175 6.75677C15.6867 2.7279 20.2286 1.31856 20.4168 1.2577L21.4071 0.950665L22.3697 1.31579C24.7886 2.28809 27.1233 3.4554 29.3541 4.80389C26.4648 5.32945 23.1953 6.39441 19.9009 7.9462C17.6244 8.99595 15.4474 10.2504 13.3977 11.6957L13.359 11.7233C11.1641 13.2378 9.12128 14.9597 7.25828 16.8683C7.05773 13.5518 7.2735 10.6169 7.70917 8.40814Z" fill="url(#paint0_linear_47_21)"/>
<path d="M31.1592 5.92694C31.8895 6.42346 32.6432 6.96147 33.4053 7.54513C38.9874 11.8091 41.7078 15.7121 41.8212 15.8725L42.4132 16.7231L42.3579 17.7507C42.1642 20.3495 41.759 22.929 41.1491 25.4627C39.7729 22.868 37.7675 20.0743 35.2904 17.405C33.6002 15.5531 31.7457 13.8588 29.7485 12.343L29.7111 12.3139C27.6033 10.6805 25.342 9.25598 22.9604 8.05824C26.0598 6.86465 28.9228 6.18003 31.1592 5.92694Z" fill="url(#paint1_linear_47_21)"/>
<path d="M40.6108 27.11C40.3784 27.9619 40.1143 28.8498 39.8099 29.7599C37.5901 36.4249 34.7812 40.2643 34.6664 40.4247L34.0536 41.2615L33.0634 41.5422C30.5421 42.2033 27.9709 42.6583 25.3764 42.9031C27.3846 40.7594 29.3748 37.9559 31.0952 34.7459C32.2985 32.5468 33.2985 30.2412 34.0827 27.8596L34.0979 27.8153C34.9581 25.2912 35.5722 22.691 35.9318 20.048C38.0673 22.5914 39.644 25.0768 40.6108 27.11Z" fill="url(#paint2_linear_47_21)"/>
<path d="M23.4845 42.985C22.6021 43.0292 21.6769 43.0541 20.717 43.0486C13.6924 43.0127 9.1698 41.5383 8.9817 41.4789L7.99696 41.1566L7.4216 40.3018C6.0095 38.1111 4.77718 35.8096 3.73712 33.4197C6.39952 34.6603 9.68291 35.6796 13.2692 36.3158C15.7338 36.775 18.2357 37.0088 20.7432 37.0129H20.7903C23.4568 37.0447 26.1193 36.8192 28.7416 36.3379C26.9877 39.1622 25.1165 41.4331 23.4845 42.985Z" fill="url(#paint3_linear_47_21)"/>
<path d="M2.94322 31.5729C2.63479 30.7446 2.33191 29.8705 2.04699 28.9534C-0.0400555 22.2456 5.49552e-05 17.4892 5.49552e-05 17.2915L0.00973531 16.2556L0.650095 15.4492C2.31254 13.441 4.13403 11.5711 6.09798 9.85747C5.71903 12.7702 5.73838 16.2085 6.21416 19.8197C6.5212 22.3078 7.05369 24.7642 7.80607 27.1555L7.8199 27.2011C8.59441 29.7529 9.61374 32.2229 10.864 34.5783C7.64563 33.7582 4.91547 32.6601 2.94322 31.5729Z" fill="url(#paint4_linear_47_21)"/>
<defs>
<linearGradient id="paint0_linear_47_21" x1="22.3808" y1="4.33548" x2="8.67583" y2="8.0982" gradientUnits="userSpaceOnUse">
<stop stop-color="#147DD4"/>
<stop offset="1" stop-color="#129DDC"/>
</linearGradient>
<linearGradient id="paint1_linear_47_21" x1="39.6501" y1="18.4271" x2="32.2372" y2="4.43521" gradientUnits="userSpaceOnUse">
<stop stop-color="#165FCC"/>
<stop offset="1" stop-color="#147DD4"/>
</linearGradient>
<linearGradient id="paint2_linear_47_21" x1="31.0152" y1="38.3902" x2="39.0859" y2="26.0864" gradientUnits="userSpaceOnUse">
<stop stop-color="#0EDCEC"/>
<stop offset="1" stop-color="#0CFBF3"/>
</linearGradient>
<linearGradient id="paint3_linear_47_21" x1="8.28926" y1="38.2523" x2="23.5311" y2="40.4882" gradientUnits="userSpaceOnUse">
<stop stop-color="#10BCE4"/>
<stop offset="1" stop-color="#0EDCEC"/>
</linearGradient>
<linearGradient id="paint4_linear_47_21" x1="5.38794" y1="15.6639" x2="1.56209" y2="29.0789" gradientUnits="userSpaceOnUse">
<stop stop-color="#129DDC"/>
<stop offset="0.989583" stop-color="#10BCE4"/>
</linearGradient>
</defs>
</svg>
